<?xml version="1.0" encoding="utf-8"?>
<!-- Generator: Adobe Illustrator 16.0.0, SVG Export Plug-In . SVG Version: 6.00 Build 0)  -->
<!DOCTYPE svg PUBLIC "-//W3C//DTD SVG 1.1//EN" "http://www.w3.org/Graphics/SVG/1.1/DTD/svg11.dtd">
<svg version="1.1" id="Layer_1" xmlns="http://www.w3.org/2000/svg" xmlns:xlink="http://www.w3.org/1999/xlink" x="0px" y="0px"
	 width="144px" height="58px" viewBox="0 0 144 58" enable-background="new 0 0 144 58" xml:space="preserve">
<g>
	<g>
		<g>
			<g>
				<linearGradient id="SVGID_1_" gradientUnits="userSpaceOnUse" x1="43.6724" y1="-1.0981" x2="43.6724" y2="61.8573">
					<stop  offset="0" style="stop-color:#FFF33B"/>
					<stop  offset="0.1245" style="stop-color:#FAC73B"/>
					<stop  offset="0.2625" style="stop-color:#F59D3B"/>
					<stop  offset="0.4038" style="stop-color:#F07B3A"/>
					<stop  offset="0.5467" style="stop-color:#ED603A"/>
					<stop  offset="0.692" style="stop-color:#EB4D3A"/>
					<stop  offset="0.8412" style="stop-color:#E9423A"/>
					<stop  offset="1" style="stop-color:#E93E3A"/>
				</linearGradient>
				<path fill="url(#SVGID_1_)" d="M49.05,34.629c-0.275,0.584-0.657,1.067-1.144,1.454c-0.488,0.386-1.062,0.677-1.724,0.874
					c-0.662,0.198-1.37,0.297-2.124,0.297c-1.048,0-2.11-0.188-3.185-0.565c-1.076-0.376-2.073-0.931-2.992-1.664l1.489-2.315
					c0.79,0.603,1.595,1.059,2.413,1.369s1.604,0.466,2.358,0.466c0.717,0,1.273-0.146,1.668-0.438
					c0.396-0.291,0.593-0.682,0.593-1.171v-0.057c0-0.282-0.087-0.527-0.262-0.734c-0.175-0.206-0.414-0.391-0.717-0.55
					c-0.304-0.16-0.653-0.301-1.048-0.424c-0.396-0.122-0.805-0.249-1.228-0.381c-0.533-0.17-1.071-0.357-1.613-0.564
					c-0.543-0.207-1.03-0.476-1.462-0.805c-0.432-0.33-0.786-0.734-1.062-1.214c-0.276-0.479-0.414-1.077-0.414-1.792v-0.056
					c0-0.696,0.133-1.327,0.4-1.891c0.266-0.564,0.634-1.044,1.103-1.44c0.469-0.395,1.021-0.696,1.655-0.902
					c0.634-0.207,1.31-0.311,2.027-0.311c0.919,0,1.848,0.151,2.785,0.452c0.938,0.301,1.792,0.715,2.565,1.242l-1.324,2.428
					c-0.699-0.433-1.407-0.776-2.124-1.03c-0.717-0.254-1.379-0.381-1.985-0.381c-0.644,0-1.145,0.141-1.503,0.423
					s-0.538,0.64-0.538,1.072v0.057c0,0.264,0.092,0.494,0.276,0.691c0.184,0.198,0.427,0.377,0.731,0.537
					c0.303,0.16,0.652,0.31,1.048,0.452c0.395,0.141,0.804,0.277,1.227,0.41c0.533,0.169,1.066,0.366,1.6,0.592
					c0.533,0.226,1.016,0.504,1.448,0.833c0.432,0.329,0.786,0.729,1.062,1.199c0.276,0.471,0.414,1.045,0.414,1.722v0.057
					C49.464,33.359,49.326,34.046,49.05,34.629z"/>
				<linearGradient id="SVGID_2_" gradientUnits="userSpaceOnUse" x1="61.7354" y1="-1.0981" x2="61.7353" y2="61.8578">
					<stop  offset="0" style="stop-color:#FFF33B"/>
					<stop  offset="0.1245" style="stop-color:#FAC73B"/>
					<stop  offset="0.2625" style="stop-color:#F59D3B"/>
					<stop  offset="0.4038" style="stop-color:#F07B3A"/>
					<stop  offset="0.5467" style="stop-color:#ED603A"/>
					<stop  offset="0.692" style="stop-color:#EB4D3A"/>
					<stop  offset="0.8412" style="stop-color:#E9423A"/>
					<stop  offset="1" style="stop-color:#E93E3A"/>
				</linearGradient>
				<path fill="url(#SVGID_2_)" d="M64.861,22.484c0.8-0.484,1.751-0.726,2.856-0.726c1.601,0,2.851,0.494,3.752,1.482
					c0.901,0.988,1.353,2.395,1.353,4.22v9.512h-3.364v-8.448c0-1.183-0.257-2.084-0.769-2.704
					c-0.514-0.619-1.235-0.929-2.169-0.929c-0.916,0-1.661,0.314-2.237,0.943c-0.577,0.629-0.865,1.544-0.865,2.746v8.392h-3.364
					v-8.477c0-1.164-0.256-2.056-0.769-2.675c-0.513-0.619-1.235-0.929-2.169-0.929c-0.933,0-1.684,0.329-2.251,0.986
					s-0.851,1.568-0.851,2.731v8.364h-3.364V22.069h3.364v2.281c0.239-0.341,0.496-0.664,0.772-0.968
					c0.275-0.304,0.592-0.579,0.95-0.826c0.359-0.247,0.763-0.442,1.213-0.584c0.45-0.143,0.95-0.214,1.502-0.214
					c1.047,0,1.934,0.242,2.659,0.726s1.281,1.125,1.667,1.922C63.367,23.609,64.061,22.969,64.861,22.484z"/>
				<linearGradient id="SVGID_3_" gradientUnits="userSpaceOnUse" x1="81.6035" y1="-1.0986" x2="81.6035" y2="61.8588">
					<stop  offset="0" style="stop-color:#FFF33B"/>
					<stop  offset="0.1245" style="stop-color:#FAC73B"/>
					<stop  offset="0.2625" style="stop-color:#F59D3B"/>
					<stop  offset="0.4038" style="stop-color:#F07B3A"/>
					<stop  offset="0.5467" style="stop-color:#ED603A"/>
					<stop  offset="0.692" style="stop-color:#EB4D3A"/>
					<stop  offset="0.8412" style="stop-color:#E9423A"/>
					<stop  offset="1" style="stop-color:#E93E3A"/>
				</linearGradient>
				<path fill="url(#SVGID_3_)" d="M88.774,32.541c-0.396,0.941-0.938,1.765-1.628,2.47c-0.689,0.706-1.512,1.266-2.467,1.679
					c-0.957,0.414-1.995,0.622-3.116,0.622c-1.104,0-2.129-0.202-3.075-0.607c-0.947-0.404-1.766-0.96-2.454-1.665
					c-0.689-0.706-1.228-1.524-1.613-2.456c-0.387-0.932-0.58-1.933-0.58-3.006c0-1.072,0.198-2.083,0.594-3.034
					c0.395-0.95,0.938-1.778,1.627-2.484s1.507-1.265,2.454-1.68c0.946-0.414,1.98-0.621,3.103-0.621
					c1.121,0,2.155,0.202,3.103,0.607c0.946,0.404,1.765,0.959,2.453,1.665c0.689,0.706,1.228,1.529,1.613,2.47
					c0.387,0.941,0.58,1.948,0.58,3.021C89.367,30.592,89.169,31.599,88.774,32.541z M85.674,27.714
					c-0.219-0.583-0.525-1.096-0.918-1.539c-0.393-0.441-0.859-0.79-1.397-1.044c-0.539-0.254-1.138-0.381-1.795-0.381
					c-0.658,0-1.257,0.127-1.796,0.381c-0.538,0.254-1,0.597-1.384,1.03c-0.384,0.433-0.676,0.937-0.876,1.51
					c-0.201,0.574-0.302,1.19-0.302,1.85c0,0.658,0.108,1.283,0.329,1.876c0.219,0.594,0.524,1.106,0.917,1.539
					c0.394,0.433,0.858,0.776,1.398,1.029c0.539,0.255,1.128,0.382,1.768,0.382c0.676,0,1.283-0.127,1.822-0.382
					c0.539-0.253,1.001-0.597,1.384-1.029c0.384-0.433,0.676-0.936,0.877-1.511c0.201-0.573,0.302-1.189,0.302-1.849
					C86.003,28.918,85.893,28.297,85.674,27.714z"/>
				<linearGradient id="SVGID_4_" gradientUnits="userSpaceOnUse" x1="97.5156" y1="-1.0986" x2="97.5156" y2="61.8588">
					<stop  offset="0" style="stop-color:#FFF33B"/>
					<stop  offset="0.1245" style="stop-color:#FAC73B"/>
					<stop  offset="0.2625" style="stop-color:#F59D3B"/>
					<stop  offset="0.4038" style="stop-color:#F07B3A"/>
					<stop  offset="0.5467" style="stop-color:#ED603A"/>
					<stop  offset="0.692" style="stop-color:#EB4D3A"/>
					<stop  offset="0.8412" style="stop-color:#E9423A"/>
					<stop  offset="1" style="stop-color:#E93E3A"/>
				</linearGradient>
				<path fill="url(#SVGID_4_)" d="M104.686,32.541c-0.396,0.941-0.938,1.765-1.627,2.47c-0.689,0.706-1.513,1.266-2.468,1.679
					c-0.956,0.414-1.995,0.622-3.116,0.622c-1.104,0-2.129-0.202-3.075-0.607c-0.947-0.404-1.765-0.96-2.454-1.665
					c-0.69-0.706-1.228-1.524-1.613-2.456s-0.579-1.933-0.579-3.006c0-1.072,0.197-2.083,0.593-3.034
					c0.396-0.95,0.938-1.778,1.627-2.484s1.507-1.265,2.454-1.68c0.947-0.414,1.98-0.621,3.103-0.621
					c1.121,0,2.155,0.202,3.103,0.607c0.946,0.404,1.765,0.959,2.455,1.665c0.688,0.706,1.227,1.529,1.612,2.47
					c0.387,0.941,0.579,1.948,0.579,3.021C105.278,30.592,105.081,31.599,104.686,32.541z M101.585,27.714
					c-0.219-0.583-0.524-1.096-0.917-1.539c-0.394-0.441-0.859-0.79-1.398-1.044c-0.539-0.254-1.137-0.381-1.795-0.381
					s-1.256,0.127-1.795,0.381c-0.539,0.254-1,0.597-1.384,1.03c-0.385,0.433-0.677,0.937-0.878,1.51
					c-0.2,0.574-0.301,1.19-0.301,1.85c0,0.658,0.109,1.283,0.329,1.876c0.219,0.594,0.524,1.106,0.917,1.539
					c0.394,0.433,0.859,0.776,1.398,1.029c0.539,0.255,1.128,0.382,1.768,0.382c0.676,0,1.283-0.127,1.822-0.382
					c0.539-0.253,1.001-0.597,1.384-1.029c0.384-0.433,0.677-0.936,0.877-1.511c0.201-0.573,0.302-1.189,0.302-1.849
					C101.914,28.918,101.804,28.297,101.585,27.714z"/>
				<linearGradient id="SVGID_5_" gradientUnits="userSpaceOnUse" x1="111.0684" y1="-1.0981" x2="111.0684" y2="61.8573">
					<stop  offset="0" style="stop-color:#FFF33B"/>
					<stop  offset="0.1245" style="stop-color:#FAC73B"/>
					<stop  offset="0.2625" style="stop-color:#F59D3B"/>
					<stop  offset="0.4038" style="stop-color:#F07B3A"/>
					<stop  offset="0.5467" style="stop-color:#ED603A"/>
					<stop  offset="0.692" style="stop-color:#EB4D3A"/>
					<stop  offset="0.8412" style="stop-color:#E9423A"/>
					<stop  offset="1" style="stop-color:#E93E3A"/>
				</linearGradient>
				<path fill="url(#SVGID_5_)" d="M116.446,34.629c-0.275,0.584-0.657,1.067-1.144,1.454c-0.488,0.386-1.063,0.677-1.724,0.874
					c-0.662,0.198-1.37,0.297-2.124,0.297c-1.048,0-2.109-0.188-3.185-0.565c-1.076-0.376-2.073-0.931-2.993-1.664l1.49-2.315
					c0.79,0.603,1.595,1.059,2.413,1.369c0.817,0.311,1.604,0.466,2.357,0.466c0.717,0,1.272-0.146,1.668-0.438
					c0.396-0.291,0.594-0.682,0.594-1.171v-0.057c0-0.282-0.088-0.527-0.263-0.734c-0.175-0.206-0.413-0.391-0.717-0.55
					c-0.304-0.16-0.652-0.301-1.048-0.424c-0.396-0.122-0.805-0.249-1.227-0.381c-0.534-0.17-1.072-0.357-1.614-0.564
					s-1.029-0.476-1.462-0.805c-0.432-0.33-0.785-0.734-1.061-1.214c-0.276-0.479-0.414-1.077-0.414-1.792v-0.056
					c0-0.696,0.133-1.327,0.4-1.891c0.266-0.564,0.634-1.044,1.103-1.44c0.469-0.395,1.021-0.696,1.654-0.902
					c0.635-0.207,1.311-0.311,2.027-0.311c0.919,0,1.848,0.151,2.785,0.452c0.938,0.301,1.793,0.715,2.564,1.242l-1.323,2.428
					c-0.699-0.433-1.406-0.776-2.123-1.03c-0.718-0.254-1.379-0.381-1.986-0.381c-0.644,0-1.145,0.141-1.503,0.423
					s-0.537,0.64-0.537,1.072v0.057c0,0.264,0.092,0.494,0.275,0.691c0.184,0.198,0.428,0.377,0.73,0.537
					c0.304,0.16,0.652,0.31,1.048,0.452c0.396,0.141,0.805,0.277,1.228,0.41c0.532,0.169,1.066,0.366,1.6,0.592
					c0.533,0.226,1.015,0.504,1.447,0.833s0.786,0.729,1.062,1.199c0.276,0.471,0.414,1.045,0.414,1.722v0.057
					C116.86,33.359,116.723,34.046,116.446,34.629z"/>
				<linearGradient id="SVGID_6_" gradientUnits="userSpaceOnUse" x1="124.293" y1="-1.0986" x2="124.293" y2="61.8588">
					<stop  offset="0" style="stop-color:#FFF33B"/>
					<stop  offset="0.1245" style="stop-color:#FAC73B"/>
					<stop  offset="0.2625" style="stop-color:#F59D3B"/>
					<stop  offset="0.4038" style="stop-color:#F07B3A"/>
					<stop  offset="0.5467" style="stop-color:#ED603A"/>
					<stop  offset="0.692" style="stop-color:#EB4D3A"/>
					<stop  offset="0.8412" style="stop-color:#E9423A"/>
					<stop  offset="1" style="stop-color:#E93E3A"/>
				</linearGradient>
				<path fill="url(#SVGID_6_)" d="M122.018,33.542c0.753,0.649,1.673,0.974,2.757,0.974c0.828,0,1.545-0.15,2.151-0.451
					s1.203-0.743,1.792-1.327l1.958,1.778c-0.698,0.847-1.529,1.523-2.495,2.032c-0.965,0.509-2.119,0.763-3.461,0.763
					c-1.048,0-2.026-0.188-2.937-0.565c-0.911-0.376-1.701-0.902-2.372-1.58c-0.672-0.677-1.199-1.491-1.586-2.441
					c-0.385-0.95-0.579-2.009-0.579-3.176c0-1.072,0.175-2.079,0.524-3.02c0.349-0.94,0.841-1.764,1.475-2.47
					c0.635-0.706,1.384-1.265,2.248-1.68c0.864-0.414,1.82-0.621,2.868-0.621c1.158,0,2.173,0.216,3.047,0.649
					c0.873,0.433,1.6,1.016,2.179,1.75s1.016,1.591,1.311,2.569c0.293,0.979,0.441,2.004,0.441,3.076
					c0,0.15-0.006,0.302-0.015,0.452c-0.009,0.151-0.023,0.311-0.041,0.479h-10.699C120.785,31.958,121.264,32.893,122.018,33.542z
					 M128.028,28.476c-0.055-0.545-0.175-1.059-0.357-1.539c-0.185-0.479-0.433-0.894-0.745-1.242
					c-0.313-0.348-0.686-0.625-1.117-0.833c-0.432-0.207-0.924-0.31-1.475-0.31c-1.03,0-1.88,0.362-2.551,1.086
					c-0.672,0.725-1.08,1.67-1.227,2.837H128.028z"/>
			</g>
			<linearGradient id="SVGID_7_" gradientUnits="userSpaceOnUse" x1="133.127" y1="-1.0981" x2="133.127" y2="61.857">
				<stop  offset="0" style="stop-color:#FFF33B"/>
				<stop  offset="0.1245" style="stop-color:#FAC73B"/>
				<stop  offset="0.2625" style="stop-color:#F59D3B"/>
				<stop  offset="0.4038" style="stop-color:#F07B3A"/>
				<stop  offset="0.5467" style="stop-color:#ED603A"/>
				<stop  offset="0.692" style="stop-color:#EB4D3A"/>
				<stop  offset="0.8412" style="stop-color:#E9423A"/>
				<stop  offset="1" style="stop-color:#E93E3A"/>
			</linearGradient>
			<circle fill="url(#SVGID_7_)" cx="133.127" cy="35.345" r="1.148"/>
		</g>
	</g>
	<g>
		<linearGradient id="SVGID_8_" gradientUnits="userSpaceOnUse" x1="22.2544" y1="-1.0977" x2="22.2544" y2="61.8569">
			<stop  offset="0" style="stop-color:#FFF33B"/>
			<stop  offset="0.1245" style="stop-color:#FAC73B"/>
			<stop  offset="0.2625" style="stop-color:#F59D3B"/>
			<stop  offset="0.4038" style="stop-color:#F07B3A"/>
			<stop  offset="0.5467" style="stop-color:#ED603A"/>
			<stop  offset="0.692" style="stop-color:#EB4D3A"/>
			<stop  offset="0.8412" style="stop-color:#E9423A"/>
			<stop  offset="1" style="stop-color:#E93E3A"/>
		</linearGradient>
		<path fill="url(#SVGID_8_)" d="M22.254,16.136c-6.92,0-12.531,5.61-12.531,12.53c0,6.921,5.61,12.53,12.531,12.53
			s12.53-5.609,12.53-12.53C34.785,21.746,29.175,16.136,22.254,16.136z M30.819,28.667C4.757,24.163,26.726,39.49,21.372,39.49
			c-0.257,0-0.513-0.016-0.767-0.041c-1.598-0.155-3.118-0.785-4.447-1.737c-2.383-1.609-4.092-4.137-4.629-7.073
			c-0.135-0.652-0.207-1.313-0.207-1.972c0-0.379,0.031-0.759,0.085-1.138c0.53-5.108,4.584-9.167,9.689-9.706
			c0.385-0.056,0.771-0.087,1.155-0.087c0.638,0,1.253,0.069,1.849,0.185c3.917,0.667,7.121,3.422,8.427,7.081
			c0.177,0.45,0.299,0.88,0.368,1.281C33.169,27.875,32.561,28.968,30.819,28.667z"/>
	</g>
</g>
<g>
</g>
<g>
</g>
<g>
</g>
<g>
</g>
<g>
</g>
<g>
</g>
</svg>
