<?xml version="1.0" encoding="utf-8"?>
<!-- Generator: Adobe Illustrator 16.0.0, SVG Export Plug-In . SVG Version: 6.00 Build 0)  -->
<!DOCTYPE svg PUBLIC "-//W3C//DTD SVG 1.1//EN" "http://www.w3.org/Graphics/SVG/1.1/DTD/svg11.dtd">
<svg version="1.1" id="Layer_1" xmlns="http://www.w3.org/2000/svg" xmlns:xlink="http://www.w3.org/1999/xlink" x="0px" y="0px"
	 width="144px" height="33px" viewBox="0 0 144 33" enable-background="new 0 0 144 33" xml:space="preserve">
<g>
	<g>
		<g>
			<g>
				<path fill="#FFFFFF" d="M46.507,22.854c-0.307,0.648-0.73,1.187-1.271,1.615c-0.542,0.428-1.179,0.752-1.915,0.972
					c-0.735,0.22-1.521,0.33-2.359,0.33c-1.164,0-2.343-0.209-3.538-0.628c-1.195-0.418-2.303-1.035-3.324-1.85l1.655-2.57
					c0.877,0.669,1.771,1.175,2.68,1.52c0.909,0.345,1.781,0.517,2.619,0.517c0.796,0,1.414-0.162,1.853-0.486
					c0.439-0.323,0.659-0.757,0.659-1.301v-0.062c0-0.314-0.097-0.585-0.291-0.815c-0.194-0.229-0.459-0.434-0.796-0.612
					s-0.725-0.334-1.164-0.47c-0.44-0.136-0.894-0.277-1.363-0.423c-0.593-0.188-1.19-0.397-1.792-0.628
					c-0.603-0.23-1.145-0.527-1.624-0.892c-0.48-0.367-0.874-0.816-1.18-1.349s-0.459-1.196-0.459-1.991v-0.063
					c0-0.773,0.147-1.474,0.444-2.101c0.296-0.627,0.705-1.16,1.225-1.6c0.521-0.438,1.133-0.773,1.838-1.003
					c0.705-0.229,1.455-0.345,2.251-0.345c1.021,0,2.052,0.167,3.094,0.501c1.042,0.335,1.992,0.795,2.849,1.379l-1.47,2.697
					c-0.776-0.48-1.563-0.863-2.359-1.145c-0.796-0.282-1.532-0.423-2.206-0.423c-0.715,0-1.271,0.157-1.669,0.471
					c-0.398,0.313-0.598,0.711-0.598,1.191v0.063c0,0.293,0.102,0.549,0.307,0.768c0.204,0.219,0.475,0.418,0.812,0.596
					c0.337,0.177,0.724,0.345,1.164,0.501c0.439,0.157,0.893,0.309,1.363,0.455c0.592,0.188,1.184,0.407,1.777,0.659
					c0.592,0.25,1.128,0.56,1.608,0.924c0.479,0.367,0.873,0.811,1.179,1.333s0.459,1.16,0.459,1.913v0.063
					C46.966,21.444,46.813,22.207,46.507,22.854z"/>
				<path fill="#FFFFFF" d="M64.07,9.364c0.889-0.538,1.946-0.807,3.173-0.807c1.777,0,3.166,0.548,4.167,1.646
					c1.001,1.097,1.502,2.66,1.502,4.688v10.566h-3.737v-9.384c0-1.314-0.285-2.315-0.854-3.003
					c-0.569-0.688-1.372-1.032-2.408-1.032c-1.018,0-1.845,0.35-2.485,1.048c-0.641,0.699-0.961,1.715-0.961,3.05v9.322h-3.737
					v-9.416c0-1.293-0.284-2.283-0.854-2.972c-0.569-0.688-1.372-1.032-2.409-1.032c-1.037,0-1.87,0.365-2.5,1.095
					c-0.631,0.73-0.946,1.742-0.946,3.034v9.291h-3.737V8.902h3.737v2.534c0.266-0.379,0.551-0.738,0.857-1.075
					c0.306-0.337,0.657-0.644,1.056-0.918c0.398-0.274,0.848-0.49,1.348-0.648c0.5-0.158,1.056-0.237,1.668-0.237
					c1.164,0,2.148,0.269,2.955,0.807s1.423,1.25,1.853,2.135C62.41,10.613,63.181,9.902,64.07,9.364z"/>
				<path fill="#FFFFFF" d="M90.633,20.534c-0.439,1.045-1.041,1.959-1.808,2.744c-0.766,0.783-1.68,1.406-2.741,1.865
					c-1.063,0.458-2.215,0.689-3.461,0.689c-1.226,0-2.364-0.224-3.415-0.673c-1.053-0.449-1.961-1.066-2.728-1.85
					c-0.765-0.784-1.362-1.693-1.791-2.728c-0.43-1.036-0.644-2.148-0.644-3.34s0.219-2.315,0.658-3.371
					c0.438-1.056,1.041-1.976,1.808-2.76c0.767-0.783,1.674-1.405,2.726-1.866c1.053-0.459,2.201-0.689,3.446-0.689
					c1.246,0,2.395,0.225,3.446,0.674c1.052,0.449,1.961,1.065,2.726,1.849c0.766,0.784,1.364,1.698,1.792,2.744
					c0.43,1.045,0.645,2.163,0.645,3.355S91.071,19.489,90.633,20.534z M87.188,15.173c-0.242-0.648-0.583-1.218-1.02-1.709
					c-0.436-0.49-0.954-0.877-1.552-1.16c-0.599-0.282-1.264-0.423-1.993-0.423c-0.73,0-1.397,0.141-1.995,0.423
					s-1.111,0.664-1.537,1.145c-0.426,0.48-0.751,1.04-0.974,1.677c-0.224,0.638-0.336,1.322-0.336,2.054
					c0,0.732,0.122,1.427,0.365,2.085c0.243,0.659,0.583,1.229,1.02,1.708c0.437,0.482,0.954,0.862,1.554,1.145
					c0.598,0.283,1.253,0.423,1.963,0.423c0.751,0,1.425-0.14,2.025-0.423c0.598-0.282,1.111-0.663,1.536-1.145
					c0.426-0.479,0.751-1.04,0.975-1.678c0.224-0.636,0.335-1.32,0.335-2.053C87.555,16.51,87.433,15.821,87.188,15.173z"/>
				<path fill="#FFFFFF" d="M108.308,20.534c-0.439,1.045-1.041,1.959-1.807,2.744c-0.767,0.783-1.681,1.406-2.741,1.865
					c-1.063,0.458-2.217,0.689-3.462,0.689c-1.226,0-2.364-0.224-3.416-0.673c-1.052-0.449-1.96-1.066-2.726-1.85
					c-0.768-0.784-1.364-1.693-1.793-2.728c-0.429-1.036-0.644-2.148-0.644-3.34s0.22-2.315,0.659-3.371s1.041-1.976,1.808-2.76
					c0.766-0.783,1.674-1.405,2.727-1.866c1.051-0.459,2.199-0.689,3.446-0.689c1.244,0,2.394,0.225,3.446,0.674
					c1.05,0.449,1.959,1.065,2.726,1.849c0.767,0.784,1.363,1.698,1.792,2.744c0.43,1.045,0.644,2.163,0.644,3.355
					S108.747,19.489,108.308,20.534z M104.864,15.173c-0.244-0.648-0.583-1.218-1.02-1.709c-0.437-0.49-0.954-0.877-1.554-1.16
					c-0.599-0.282-1.263-0.423-1.993-0.423c-0.731,0-1.396,0.141-1.994,0.423c-0.6,0.282-1.111,0.664-1.537,1.145
					c-0.428,0.48-0.752,1.04-0.975,1.677c-0.223,0.638-0.334,1.322-0.334,2.054c0,0.732,0.12,1.427,0.364,2.085
					c0.244,0.659,0.583,1.229,1.02,1.708c0.438,0.482,0.954,0.862,1.553,1.145c0.6,0.283,1.254,0.423,1.965,0.423
					c0.749,0,1.424-0.14,2.023-0.423c0.6-0.282,1.111-0.663,1.538-1.145c0.426-0.479,0.75-1.04,0.974-1.678
					c0.223-0.636,0.334-1.32,0.334-2.053C105.229,16.51,105.107,15.821,104.864,15.173z"/>
				<path fill="#FFFFFF" d="M121.372,22.854c-0.306,0.648-0.73,1.187-1.271,1.615c-0.542,0.428-1.18,0.752-1.915,0.972
					c-0.735,0.22-1.521,0.33-2.359,0.33c-1.163,0-2.343-0.209-3.537-0.628c-1.195-0.418-2.303-1.035-3.324-1.85l1.654-2.57
					c0.878,0.669,1.772,1.175,2.682,1.52c0.907,0.345,1.78,0.517,2.618,0.517c0.796,0,1.414-0.162,1.854-0.486
					c0.438-0.323,0.658-0.757,0.658-1.301v-0.062c0-0.314-0.097-0.585-0.291-0.815c-0.194-0.229-0.459-0.434-0.797-0.612
					c-0.337-0.178-0.724-0.334-1.164-0.47c-0.439-0.136-0.894-0.277-1.362-0.423c-0.594-0.188-1.19-0.397-1.792-0.628
					c-0.604-0.23-1.145-0.527-1.625-0.892c-0.479-0.367-0.872-0.816-1.178-1.349c-0.308-0.533-0.46-1.196-0.46-1.991v-0.063
					c0-0.773,0.147-1.474,0.444-2.101c0.296-0.627,0.704-1.16,1.226-1.6c0.521-0.438,1.133-0.773,1.837-1.003
					c0.705-0.229,1.455-0.345,2.251-0.345c1.021,0,2.054,0.167,3.096,0.501c1.041,0.335,1.99,0.795,2.848,1.379l-1.47,2.697
					c-0.776-0.48-1.563-0.863-2.358-1.145c-0.796-0.282-1.531-0.423-2.206-0.423c-0.715,0-1.271,0.157-1.669,0.471
					c-0.398,0.313-0.598,0.711-0.598,1.191v0.063c0,0.293,0.103,0.549,0.306,0.768c0.205,0.219,0.475,0.418,0.813,0.596
					c0.337,0.177,0.725,0.345,1.164,0.501c0.438,0.157,0.893,0.309,1.362,0.455c0.593,0.188,1.185,0.407,1.777,0.659
					c0.593,0.25,1.127,0.56,1.608,0.924c0.479,0.367,0.873,0.811,1.179,1.333c0.307,0.522,0.459,1.16,0.459,1.913v0.063
					C121.831,21.444,121.679,22.207,121.372,22.854z"/>
				<path fill="#FFFFFF" d="M127.561,21.648c0.836,0.721,1.857,1.081,3.063,1.081c0.918,0,1.715-0.167,2.39-0.5
					c0.673-0.334,1.336-0.827,1.99-1.475l2.174,1.975c-0.775,0.941-1.698,1.692-2.771,2.258c-1.071,0.563-2.353,0.846-3.844,0.846
					c-1.165,0-2.252-0.208-3.263-0.627c-1.011-0.417-1.89-1.002-2.634-1.756c-0.747-0.752-1.333-1.656-1.762-2.712
					c-0.429-1.055-0.644-2.231-0.644-3.526c0-1.192,0.194-2.31,0.582-3.356c0.388-1.044,0.935-1.959,1.639-2.744
					c0.705-0.783,1.536-1.405,2.496-1.866c0.961-0.459,2.022-0.689,3.188-0.689c1.286,0,2.413,0.24,3.384,0.721
					c0.97,0.481,1.776,1.129,2.42,1.944c0.644,0.815,1.128,1.767,1.455,2.854c0.326,1.087,0.49,2.226,0.49,3.418
					c0,0.167-0.005,0.334-0.016,0.501c-0.01,0.167-0.025,0.344-0.046,0.533h-11.885C126.191,19.887,126.723,20.927,127.561,21.648z
					 M134.237,16.02c-0.061-0.606-0.194-1.176-0.397-1.709c-0.204-0.533-0.479-0.992-0.826-1.38
					c-0.348-0.386-0.762-0.694-1.242-0.925c-0.479-0.229-1.026-0.344-1.639-0.344c-1.144,0-2.087,0.402-2.833,1.207
					c-0.745,0.805-1.2,1.856-1.362,3.152H134.237z"/>
			</g>
			<circle fill="#FFFFFF" cx="139.902" cy="23.65" r="1.275"/>
		</g>
	</g>
	<g>
		<path fill="#FFFFFF" d="M16.742,2.312c-7.688,0-13.919,6.232-13.919,13.919c0,7.687,6.232,13.919,13.919,13.919
			s13.919-6.232,13.919-13.919C30.661,8.543,24.429,2.312,16.742,2.312z M26.255,16.231c-28.951-5.003-4.546,12.023-10.494,12.023
			c-0.286,0-0.569-0.019-0.852-0.046c-1.775-0.172-3.463-0.872-4.94-1.931c-2.646-1.787-4.545-4.594-5.142-7.856
			c-0.15-0.724-0.23-1.458-0.23-2.19c0-0.421,0.035-0.843,0.094-1.265C5.281,9.292,9.785,4.783,15.456,4.185
			c0.427-0.062,0.856-0.097,1.283-0.097c0.708,0,1.392,0.077,2.053,0.205c4.351,0.742,7.91,3.802,9.361,7.866
			c0.197,0.5,0.333,0.978,0.409,1.422C28.866,15.352,28.19,16.565,26.255,16.231z"/>
	</g>
</g>
<g>
</g>
<g>
</g>
<g>
</g>
<g>
</g>
<g>
</g>
<g>
</g>
</svg>
